<svg xmlns="http://www.w3.org/2000/svg" viewBox="0 0 18.29 16.95"><defs><style>.cls-1,.cls-2{fill:#3661c7;}.cls-1{stroke:#3661c7;stroke-width:0.97px;}</style></defs><title>Asset 3</title><g id="Layer_2" data-name="Layer 2"><g id="Layer_1-2" data-name="Layer 1"><path class="cls-1" d="M17.35,10a.44.44,0,0,0-.45.43v3.85a1.33,1.33,0,0,1-1.37,1.3H2.76a1.33,1.33,0,0,1-1.36-1.3V3a1.34,1.34,0,0,1,1.36-1.3h4a.41.41,0,0,0,.45-.39A.42.42,0,0,0,6.88.83a.11.11,0,0,0-.08,0h-4A2.22,2.22,0,0,0,.49,3v11.3a2.22,2.22,0,0,0,2.27,2.17H15.53a2.22,2.22,0,0,0,2.27-2.17V10.44A.44.44,0,0,0,17.35,10Z"/><path class="cls-2" d="M5.05,9.65l8.3-7.91L16,4.29,7.73,12.2Z"/><path class="cls-2" d="M3.7,13.49l3-.78-2.14-2Z"/><path class="cls-2" d="M16.77.4a1.47,1.47,0,0,0-2,0l-.6.57,2.67,2.55.6-.57a1.33,1.33,0,0,0,.13-1.79A1.59,1.59,0,0,0,17.43,1Z"/></g></g></svg>