<svg xmlns="http://www.w3.org/2000/svg" width="150" height="147.344" viewBox="0 0 150 147.344"><g transform="translate(-1037 -41)"><path d="M1615.249-647.2a1.694,1.694,0,0,1,1.751,1.618v143.8a1.694,1.694,0,0,1-1.751,1.618h-146.5a1.694,1.694,0,0,1-1.752-1.618l.074-143.447a2.015,2.015,0,0,1,2.09-1.931Z" transform="translate(-430 688.2)" fill="#cfe1fe"/><path d="M1535.332-507.407l-29.182-24.967a1.861,1.861,0,0,0-2.344,0l-36.32,31.075a1.321,1.321,0,0,0-.486,1v37.639a1.553,1.553,0,0,0,1.658,1.418h146.685a1.552,1.552,0,0,0,1.657-1.418v-51.129a1.321,1.321,0,0,0-.481-1l-33.934-29.227a1.859,1.859,0,0,0-2.35,0l-42.557,36.6A1.861,1.861,0,0,1,1535.332-507.407Z" transform="translate(-430 649.583)" fill="#7696cb"/><circle cx="15.038" cy="15.038" r="15.038" transform="matrix(0.16, -0.987, 0.987, 0.16, 1081.028, 99.68)" fill="#fff"/></g></svg>